<mxfile host="app.diagrams.net" modified="2021-05-11T19:08:26.706Z" agent="5.0 (Macintosh; Intel Mac OS X 10_15_7) AppleWebKit/537.36 (KHTML, like Gecko) Chrome/89.0.4389.128 Safari/537.36" etag="ltn1GVGCBoaw5Neod6kN" version="14.2.9" type="github">
  <diagram id="m6xwDPNv-axrxuQFzOTo" name="Page-1">
    <mxGraphModel dx="946" dy="614" grid="1" gridSize="10" guides="1" tooltips="1" connect="1" arrows="1" fold="1" page="1" pageScale="1" pageWidth="827" pageHeight="1169" math="0" shadow="0">
      <root>
        <mxCell id="0" />
        <mxCell id="1" parent="0" />
        <mxCell id="AEOy5ifyRcNUia7ObFqS-3" style="edgeStyle=orthogonalEdgeStyle;rounded=0;orthogonalLoop=1;jettySize=auto;html=1;exitX=0.5;exitY=1;exitDx=0;exitDy=0;entryX=0.5;entryY=0;entryDx=0;entryDy=0;" edge="1" parent="1" source="AEOy5ifyRcNUia7ObFqS-1" target="AEOy5ifyRcNUia7ObFqS-2">
          <mxGeometry relative="1" as="geometry" />
        </mxCell>
        <mxCell id="AEOy5ifyRcNUia7ObFqS-1" value="Начало" style="ellipse;whiteSpace=wrap;html=1;" vertex="1" parent="1">
          <mxGeometry x="360" y="70" width="120" height="80" as="geometry" />
        </mxCell>
        <mxCell id="AEOy5ifyRcNUia7ObFqS-5" style="edgeStyle=orthogonalEdgeStyle;rounded=0;orthogonalLoop=1;jettySize=auto;html=1;exitX=0.5;exitY=1;exitDx=0;exitDy=0;entryX=0.5;entryY=0;entryDx=0;entryDy=0;" edge="1" parent="1" source="AEOy5ifyRcNUia7ObFqS-2" target="AEOy5ifyRcNUia7ObFqS-4">
          <mxGeometry relative="1" as="geometry" />
        </mxCell>
        <mxCell id="AEOy5ifyRcNUia7ObFqS-2" value="присваивание исходного списка spisok, списка для хранения результата res_position и счетчика для позиции cnt" style="rounded=0;whiteSpace=wrap;html=1;" vertex="1" parent="1">
          <mxGeometry x="300" y="180" width="240" height="60" as="geometry" />
        </mxCell>
        <mxCell id="AEOy5ifyRcNUia7ObFqS-7" style="edgeStyle=orthogonalEdgeStyle;rounded=0;orthogonalLoop=1;jettySize=auto;html=1;exitX=0.5;exitY=1;exitDx=0;exitDy=0;entryX=0.5;entryY=0;entryDx=0;entryDy=0;" edge="1" parent="1" source="AEOy5ifyRcNUia7ObFqS-4" target="AEOy5ifyRcNUia7ObFqS-6">
          <mxGeometry relative="1" as="geometry" />
        </mxCell>
        <mxCell id="AEOy5ifyRcNUia7ObFqS-4" value="запрашиваем число у пользователя num" style="shape=process;whiteSpace=wrap;html=1;backgroundOutline=1;" vertex="1" parent="1">
          <mxGeometry x="360" y="270" width="120" height="60" as="geometry" />
        </mxCell>
        <mxCell id="AEOy5ifyRcNUia7ObFqS-9" style="edgeStyle=orthogonalEdgeStyle;rounded=0;orthogonalLoop=1;jettySize=auto;html=1;exitX=0.5;exitY=1;exitDx=0;exitDy=0;entryX=0.5;entryY=0;entryDx=0;entryDy=0;" edge="1" parent="1" source="AEOy5ifyRcNUia7ObFqS-6" target="AEOy5ifyRcNUia7ObFqS-8">
          <mxGeometry relative="1" as="geometry" />
        </mxCell>
        <mxCell id="AEOy5ifyRcNUia7ObFqS-6" value="переводим в int" style="rounded=0;whiteSpace=wrap;html=1;" vertex="1" parent="1">
          <mxGeometry x="360" y="370" width="120" height="60" as="geometry" />
        </mxCell>
        <mxCell id="AEOy5ifyRcNUia7ObFqS-13" style="edgeStyle=orthogonalEdgeStyle;rounded=0;orthogonalLoop=1;jettySize=auto;html=1;exitX=0;exitY=0.5;exitDx=0;exitDy=0;entryX=0.5;entryY=0;entryDx=0;entryDy=0;" edge="1" parent="1" source="AEOy5ifyRcNUia7ObFqS-8" target="AEOy5ifyRcNUia7ObFqS-12">
          <mxGeometry relative="1" as="geometry" />
        </mxCell>
        <mxCell id="AEOy5ifyRcNUia7ObFqS-14" value="ДА" style="edgeLabel;html=1;align=center;verticalAlign=middle;resizable=0;points=[];" vertex="1" connectable="0" parent="AEOy5ifyRcNUia7ObFqS-13">
          <mxGeometry x="-0.0824" y="1" relative="1" as="geometry">
            <mxPoint as="offset" />
          </mxGeometry>
        </mxCell>
        <mxCell id="AEOy5ifyRcNUia7ObFqS-15" value="НЕТ" style="edgeStyle=orthogonalEdgeStyle;rounded=0;orthogonalLoop=1;jettySize=auto;html=1;exitX=0.5;exitY=1;exitDx=0;exitDy=0;entryX=0.5;entryY=0;entryDx=0;entryDy=0;" edge="1" parent="1" source="AEOy5ifyRcNUia7ObFqS-8" target="AEOy5ifyRcNUia7ObFqS-10">
          <mxGeometry relative="1" as="geometry" />
        </mxCell>
        <mxCell id="AEOy5ifyRcNUia7ObFqS-8" value="spisok[cnt] == num?" style="rhombus;whiteSpace=wrap;html=1;" vertex="1" parent="1">
          <mxGeometry x="320" y="480" width="200" height="80" as="geometry" />
        </mxCell>
        <mxCell id="AEOy5ifyRcNUia7ObFqS-18" style="edgeStyle=orthogonalEdgeStyle;rounded=0;orthogonalLoop=1;jettySize=auto;html=1;exitX=0.5;exitY=1;exitDx=0;exitDy=0;entryX=0.5;entryY=0;entryDx=0;entryDy=0;" edge="1" parent="1" source="AEOy5ifyRcNUia7ObFqS-10" target="AEOy5ifyRcNUia7ObFqS-17">
          <mxGeometry relative="1" as="geometry" />
        </mxCell>
        <mxCell id="AEOy5ifyRcNUia7ObFqS-10" value="cnt += 1" style="rounded=0;whiteSpace=wrap;html=1;" vertex="1" parent="1">
          <mxGeometry x="360" y="610" width="120" height="60" as="geometry" />
        </mxCell>
        <mxCell id="AEOy5ifyRcNUia7ObFqS-16" style="edgeStyle=orthogonalEdgeStyle;rounded=0;orthogonalLoop=1;jettySize=auto;html=1;exitX=1;exitY=0.5;exitDx=0;exitDy=0;entryX=0;entryY=0.5;entryDx=0;entryDy=0;" edge="1" parent="1" source="AEOy5ifyRcNUia7ObFqS-12" target="AEOy5ifyRcNUia7ObFqS-10">
          <mxGeometry relative="1" as="geometry" />
        </mxCell>
        <mxCell id="AEOy5ifyRcNUia7ObFqS-12" value="Добавляем cnt к res_position" style="rounded=0;whiteSpace=wrap;html=1;" vertex="1" parent="1">
          <mxGeometry x="180" y="610" width="120" height="60" as="geometry" />
        </mxCell>
        <mxCell id="AEOy5ifyRcNUia7ObFqS-19" style="edgeStyle=orthogonalEdgeStyle;rounded=0;orthogonalLoop=1;jettySize=auto;html=1;exitX=1;exitY=0.5;exitDx=0;exitDy=0;entryX=1;entryY=0.5;entryDx=0;entryDy=0;" edge="1" parent="1" source="AEOy5ifyRcNUia7ObFqS-17" target="AEOy5ifyRcNUia7ObFqS-8">
          <mxGeometry relative="1" as="geometry">
            <Array as="points">
              <mxPoint x="590" y="750" />
              <mxPoint x="590" y="520" />
            </Array>
          </mxGeometry>
        </mxCell>
        <mxCell id="AEOy5ifyRcNUia7ObFqS-20" value="ДА" style="edgeLabel;html=1;align=center;verticalAlign=middle;resizable=0;points=[];" vertex="1" connectable="0" parent="AEOy5ifyRcNUia7ObFqS-19">
          <mxGeometry x="-0.0865" relative="1" as="geometry">
            <mxPoint y="-11" as="offset" />
          </mxGeometry>
        </mxCell>
        <mxCell id="AEOy5ifyRcNUia7ObFqS-22" value="НЕТ" style="edgeStyle=orthogonalEdgeStyle;rounded=0;orthogonalLoop=1;jettySize=auto;html=1;exitX=0.5;exitY=1;exitDx=0;exitDy=0;entryX=0.5;entryY=0;entryDx=0;entryDy=0;" edge="1" parent="1" source="AEOy5ifyRcNUia7ObFqS-17" target="AEOy5ifyRcNUia7ObFqS-21">
          <mxGeometry relative="1" as="geometry" />
        </mxCell>
        <mxCell id="AEOy5ifyRcNUia7ObFqS-17" value="есть ли ещё элементы&lt;br&gt;&amp;nbsp;в списке?" style="rhombus;whiteSpace=wrap;html=1;" vertex="1" parent="1">
          <mxGeometry x="320" y="710" width="200" height="80" as="geometry" />
        </mxCell>
        <mxCell id="AEOy5ifyRcNUia7ObFqS-24" style="edgeStyle=orthogonalEdgeStyle;rounded=0;orthogonalLoop=1;jettySize=auto;html=1;exitX=0.5;exitY=1;exitDx=0;exitDy=0;entryX=0.5;entryY=0;entryDx=0;entryDy=0;" edge="1" parent="1" source="AEOy5ifyRcNUia7ObFqS-21" target="AEOy5ifyRcNUia7ObFqS-23">
          <mxGeometry relative="1" as="geometry" />
        </mxCell>
        <mxCell id="AEOy5ifyRcNUia7ObFqS-21" value="Выводим результат" style="rounded=0;whiteSpace=wrap;html=1;" vertex="1" parent="1">
          <mxGeometry x="360" y="850" width="120" height="60" as="geometry" />
        </mxCell>
        <mxCell id="AEOy5ifyRcNUia7ObFqS-23" value="Конец" style="ellipse;whiteSpace=wrap;html=1;" vertex="1" parent="1">
          <mxGeometry x="360" y="940" width="120" height="80" as="geometry" />
        </mxCell>
      </root>
    </mxGraphModel>
  </diagram>
</mxfile>
